<svg xmlns="http://www.w3.org/2000/svg" width="180" height="40" viewBox="0 0 180 40">
  <g fill="none" fill-rule="evenodd">
    <path fill="#FF0000" d="M59.7,14.3 L59.7,25.7 C59.7,27.9 58.3,29.3 56.1,29.3 C53.9,29.3 52.5,27.9 52.5,25.7 L52.5,14.3 L48.5,14.3 L48.5,25.7 C48.5,30.1 51.6,33.3 56.1,33.3 C60.6,33.3 63.7,30.1 63.7,25.7 L63.7,14.3 L59.7,14.3 Z M75.5,18.3 L75.5,14.3 L65.5,14.3 L65.5,33.3 L75.5,33.3 L75.5,29.3 L69.5,29.3 L69.5,25.8 L74.5,25.8 L74.5,21.8 L69.5,21.8 L69.5,18.3 L75.5,18.3 Z M86.5,18.3 L86.5,14.3 L76.5,14.3 L76.5,33.3 L86.5,33.3 L86.5,29.3 L80.5,29.3 L80.5,25.8 L85.5,25.8 L85.5,21.8 L80.5,21.8 L80.5,18.3 L86.5,18.3 Z M93.5,14.3 L89.5,14.3 L89.5,33.3 L93.5,33.3 L93.5,14.3 Z M97.5,14.3 L97.5,33.3 L101.5,33.3 L101.5,19.3 L105.2,30.3 L108.8,30.3 L112.5,19.3 L112.5,33.3 L116.5,33.3 L116.5,14.3 L111.5,14.3 L107,27.3 L102.5,14.3 L97.5,14.3 Z"/>
    <path fill="#FF0000" d="M41,10 L41,30 C41,31.1 40.1,32 39,32 L31,32 C29.9,32 29,31.1 29,30 L29,10 C29,8.9 29.9,8 31,8 L39,8 C40.1,8 41,8.9 41,10 Z"/>
    <path fill="#FF0000" d="M25,25.5 L25,14.5 C25,13.7 24.3,13 23.5,13 L16.5,13 C15.7,13 15,13.7 15,14.5 L15,25.5 C15,26.3 15.7,27 16.5,27 L23.5,27 C24.3,27 25,26.3 25,25.5 Z M20,24 C18.3,24 17,22.7 17,21 C17,19.3 18.3,18 20,18 C21.7,18 23,19.3 23,21 C23,22.7 21.7,24 20,24 Z"/>
    <text fill="#282828" font-family="Roboto-Bold, Roboto" font-size="22" font-weight="bold">
      <tspan x="117" y="33">Tube DL</tspan>
    </text>
  </g>
</svg>
